<svg width="2624" height="1112" viewBox="0 0 2624 1112" xmlns="http://www.w3.org/2000/svg" xmlns:xlink="http://www.w3.org/1999/xlink"><title>Logo</title><desc>Created using Figma</desc><g transform="matrix(4 0 0 4 17672 -35580)"><clipPath id="a" clip-rule="evenodd"><path d="M-4418 8895h656v278h-656v-278z" fill="#FFF"/></clipPath><g clip-path="url(#a)"><g transform="translate(-4398 9005.78)" fill="#FFF"><use xlink:href="#b"/><use xlink:href="#c"/><use xlink:href="#d"/><use xlink:href="#e"/><use xlink:href="#f"/><use xlink:href="#g"/></g><g transform="translate(-4389.75 8929)" fill="#F9FF00"><use xlink:href="#h"/><use xlink:href="#i"/><use xlink:href="#j"/><use xlink:href="#k"/></g><g transform="translate(-4160.33 9005.84)" fill="#F9FF00"><use xlink:href="#l"/><use xlink:href="#m"/><use xlink:href="#n"/><use xlink:href="#o"/></g></g></g><defs><path id="b" d="M115.81 62.726H64.213V81.02h28.435v29.496a57.766 57.766 0 0 1-22.785 4.667c-26.74 0-45.383-18.669-45.383-45.924 0-26.883 18.266-45.925 44.818-45.925 11.298 0 22.409 3.92 34.837 10.455l9.227-16.615c-15.63-8.4-31.447-12.881-46.889-12.881C27.305 4.294 0 31.176 0 69.26c0 38.083 27.87 64.965 67.98 64.965 16.382 0 32.012-3.92 47.83-10.64v-60.86z"/><path id="c" d="M131.02 86.248c0 28.189 20.526 47.977 49.714 47.977 29.376 0 49.902-19.788 49.902-47.977 0-28.19-20.526-47.978-49.902-47.978-29.188 0-49.714 19.789-49.714 47.978zm24.481 0c0-17.362 10.545-29.31 25.233-29.31 14.876 0 25.422 11.948 25.422 29.31 0 17.175-10.546 29.309-25.422 29.309-14.688 0-25.233-12.134-25.233-29.31z"/><path id="d" d="M423.176 6.534h-25.045l-28.058 95.395-27.87-95.395h-23.35l-28.058 95.395-27.87-95.395h-25.233l40.298 125.451h24.48l28.058-95.395 27.87 95.395h24.48L423.176 6.534z"/><path id="e" d="M435.696 131.985h24.103V40.51h-24.103v91.475zm-2.26-117.61c0 8.4 6.026 14.374 14.311 14.374 8.474 0 14.5-5.974 14.5-14.374 0-8.401-6.026-14.375-14.5-14.375-8.285 0-14.311 5.974-14.311 14.375z"/><path id="f" d="M485.347 131.985h25.046V82.327h55.362V63.1h-55.362V25.576h61.388V6.534h-86.434v125.451z"/><path id="g" d="M589.448 131.985h24.104V40.51h-24.104v91.475zm-2.259-117.61c0 8.4 6.026 14.374 14.311 14.374 8.474 0 14.5-5.974 14.5-14.374C616 5.974 609.974 0 601.5 0c-8.285 0-14.311 5.974-14.311 14.375z"/><path id="h" d="M0 60.323h12.03V36.445H38.62V27.2H12.03V9.156h29.486V0H0v60.323z"/><path id="i" d="M51.72 60.323h11.578V38.33h9.406l14.743 21.993h13.115L83.92 36.535c8.502-1.795 14.02-8.618 14.02-17.594C97.94 7.81 89.255 0 77.045 0H51.72v60.323zM63.298 9.156h11.939c6.331 0 10.854 4.13 10.854 9.964 0 6.015-4.523 9.964-10.854 9.964h-11.94V9.156z"/><path id="j" d="M110.153 60.323h42.964v-8.977h-30.934V33.843h26.592v-8.797h-26.592V8.977h29.486V0h-41.516v60.323z"/><path id="k" d="M163.287 60.323h42.963v-8.977h-30.933V33.843h26.591v-8.797h-26.591V8.977h29.486V0h-41.516v60.323z"/><path id="l" d="M185.485 6.534h-25.046l-28.058 95.395-27.869-95.395h-23.35l-28.059 95.395-27.87-95.395H0l40.298 125.451h24.48L92.836 36.59l27.87 95.395h24.48L185.485 6.534z"/><path id="m" d="M198.004 131.985h24.104V40.51h-24.104v91.475zm-2.26-117.61c0 8.4 6.026 14.374 14.312 14.374 8.474 0 14.5-5.974 14.5-14.374 0-8.401-6.026-14.375-14.5-14.375-8.286 0-14.312 5.974-14.312 14.375z"/><path id="n" d="M247.656 131.985h25.045V82.327h55.363V63.1h-55.363V25.576h61.389V6.534h-86.434v125.451z"/><path id="o" d="M351.757 131.985h24.103V40.51h-24.103v91.475zm-2.26-117.61c0 8.4 6.026 14.374 14.312 14.374 8.474 0 14.499-5.974 14.499-14.374C378.308 5.974 372.283 0 363.809 0c-8.286 0-14.312 5.974-14.312 14.375z"/></defs></svg>